<mxfile host="app.diagrams.net" modified="2023-11-20T12:04:49.419Z" agent="Mozilla/5.0 (Macintosh; Intel Mac OS X 10_15_7) AppleWebKit/537.36 (KHTML, like Gecko) Chrome/119.0.0.0 Safari/537.36" version="22.1.3" etag="Lpn-34H27-21gvBjTJ6O" type="github">
  <diagram name="Page-1" id="zCuScUGQb602vL3q9F-O">
    <mxGraphModel>
      <root>
        <mxCell id="0" />
        <mxCell id="1" parent="0" />
      </root>
    </mxGraphModel>
  </diagram>
</mxfile>
